<svg xmlns="http://www.w3.org/2000/svg" viewBox="0 0 64 64" role="img" aria-label="UniFeast">
  <defs>
    <linearGradient id="brand-orange" x1="10" y1="8" x2="56" y2="58" gradientUnits="userSpaceOnUse">
      <stop stop-color="#ff4714"/>
      <stop offset="1" stop-color="#b91d00"/>
    </linearGradient>
  </defs>
  <rect width="64" height="64" rx="18" fill="url(#brand-orange)"/>
  <path
    fill="#fff"
    d="m24.28 34.22 5.7-5.7L15.9 14.44a9.05 9.05 0 0 0 0 12.8l8.38 6.98Zm13.64-3.56c3.08 1.36 7.36.36 10.56-2.84 3.84-3.84 4.56-9.28 1.64-12.2-2.92-2.92-8.36-2.2-12.2 1.64-3.2 3.2-4.2 7.48-2.84 10.56L15.56 47.34l2.84 2.84 13.76-13.76 13.84 13.84 2.84-2.84-13.84-13.84 2.92-2.92Z"
  />
</svg>
